<svg xmlns="http://www.w3.org/2000/svg" width="169.896" height="16" viewBox="0 0 169.896 16">
  <path fill="currentColor" id="Union_3" data-name="Union 3" d="M393.308,483.117h2.248c0,.52.229,2.79,2.5,2.79a2.405,2.405,0,0,0,2.477-2.6c0-1.728-1.415-2.1-2.477-2.518-2.061-.791-2.561-1.041-3.27-1.728a4.087,4.087,0,0,1-1.041-2.893A4.22,4.22,0,0,1,398,471.98h.054a4.142,4.142,0,0,1,4.413,4.287h-2.248a2.064,2.064,0,0,0-2.165-2.227,2.119,2.119,0,0,0-2.061,2.1c0,1.478,1.394,1.873,2.061,2.123,1.936.727,4.723,1.332,4.723,5.037a4.5,4.5,0,0,1-4.322,4.665q-.2.008-.4,0a4.62,4.62,0,0,1-4.75-4.486Q393.3,483.3,393.308,483.117Zm-7.14,4.56-5.079-7.14h-.041v7.14H378.8v-15.4h4.767c2.165,0,3.289.52,4.1,1.29a5.087,5.087,0,0,1,1.416,3.643,4.426,4.426,0,0,1-4.119,4.713q-.147.01-.294.01l4.309,5.745Zm-5.121-7.452h1.541c.915,0,4.246-.042,4.246-3.018,0-1.29-.872-2.872-3.415-2.872h-2.373Zm-16.193,7.452v-15.4h8.305v2.061H367.1v4.537h6.057v2.061H367.1v4.683h6.057v2.062Zm-8.368,0-7.618-11.907h-.041v11.907h-2.248v-15.4h2.456l7.494,11.719h.041V472.272h2.248v15.4Zm-19.962,0V474.333H333.57v-2.061h8.163v2.061h-2.956v13.343Zm-9.866,0-5.079-7.14h-.042v7.14H319.29v-15.4h4.767c2.165,0,3.289.52,4.1,1.29a5.09,5.09,0,0,1,1.415,3.643,4.426,4.426,0,0,1-4.119,4.713q-.147.01-.294.01l4.309,5.745Zm-5.121-7.452h1.54c.916,0,4.246-.042,4.246-3.018,0-1.29-.872-2.872-3.415-2.872h-2.373Zm-9.366,7.452-1.707-4.538h-5.537l-1.707,4.538h-2.372l5.849-15.4h2.019l5.849,15.4Zm-6.452-6.6H309.7l-1.957-5.891H307.7Zm-18.546,6.6v-15.4h4.454c3.684,0,5.433,1.915,5.433,4.663s-1.749,4.663-5.433,4.663h-2.206v6.079Zm2.248-8.138h2.207c2.56,0,3.185-1.457,3.185-2.6s-.625-2.6-3.185-2.6h-2.207Zm-39.679,8.138v-15.4H254.2c3.684,0,5.435,1.915,5.435,4.663s-1.749,4.663-5.433,4.663H252v6.078ZM252,479.538H254.2c2.56,0,3.185-1.457,3.185-2.6s-.625-2.6-3.185-2.6H252Zm-10.514,8.138v-6.7h-6.348v6.7h-2.248v-15.4h2.248v6.641h6.348v-6.641h2.248v15.4ZM272.2,485.4v-4.541h-4.541V479.35H272.2v-4.541h1.514v4.541h4.542v1.514H273.71V485.4Z" transform="translate(-232.885 -471.972)"/>
</svg>
