<svg id="Group_787" data-name="Group 787" xmlns="http://www.w3.org/2000/svg" width="249.651" height="20" viewBox="0 0 249.651 20">
  <path id="Path_1" data-name="Path 1" d="M6.64,1.719,0,20.86H4.14l1.505-4.678h7.339l1.478,4.678H18.6L11.963,1.719Zm.081,11.075.4-1.263c.78-2.474,1.505-5,2.151-7.474h.054c.645,2.474,1.4,5,2.177,7.474l.4,1.263Z" transform="translate(0 -1.289)" fill="currentColor"/>
  <path id="Path_2" data-name="Path 2" d="M99.034,7.957c-3.011-.753-4.167-1.237-4.167-2.716,0-1.237,1.183-2.1,2.93-2.1,2.178,0,3.333,1.155,3.333,3.145h4.006c0-4.113-2.474-6.29-7.259-6.29-4.194,0-7.07,2.311-7.07,5.672,0,4.194,3.28,5.053,6.882,5.967,2.715.7,3.952,1.022,3.952,2.716,0,1.505-1.29,2.446-3.307,2.446-2.446,0-3.71-1.21-3.71-3.522H90.539c0,4.355,2.984,6.72,7.742,6.72,4.462,0,7.473-2.419,7.473-6.049C105.754,9.785,102.636,8.844,99.034,7.957Z" transform="translate(-67.904)" fill="currentColor"/>
  <path id="Path_3" data-name="Path 3" d="M181.291,7.957c-3.011-.753-4.167-1.237-4.167-2.716,0-1.237,1.183-2.1,2.93-2.1,2.178,0,3.333,1.155,3.333,3.145h4.006c0-4.113-2.474-6.29-7.259-6.29-4.193,0-7.07,2.311-7.07,5.672,0,4.194,3.28,5.053,6.882,5.967,2.715.7,3.952,1.022,3.952,2.716,0,1.505-1.29,2.446-3.307,2.446-2.447,0-3.71-1.21-3.71-3.522H172.8c0,4.355,2.984,6.72,7.742,6.72,4.462,0,7.473-2.419,7.473-6.049C188.012,9.785,184.893,8.844,181.291,7.957Z" transform="translate(-129.597)" fill="currentColor"/>
  <path id="Path_4" data-name="Path 4" d="M258.36,12.794h8.656V9.434H258.36V5.106h9.274V1.719H254.408V20.859h13.468V17.472H258.36Z" transform="translate(-190.806 -1.289)" fill="currentColor"/>
  <path id="Path_5" data-name="Path 5" d="M345.618,10.51c-.726,2.312-1.371,4.705-1.882,7.043h-.053c-.511-2.338-1.156-4.731-1.882-7.043l-2.769-8.791h-6.344V20.86h3.79V11.343q0-3.589-.161-7.178h.054c.618,2.339,1.317,4.731,2.043,7.043l3.037,9.651h4.516l3.038-9.651c.726-2.312,1.425-4.7,2.043-7.043h.054q-.161,3.589-.161,7.178V20.86h3.79V1.719h-6.344Z" transform="translate(-249.515 -1.289)" fill="currentColor"/>
  <path id="Path_6" data-name="Path 6" d="M457.069,11.155V11.1c2.231-.833,3.333-2.258,3.333-4.462,0-2.931-2.2-4.92-6.963-4.92h-6.882V20.86h7.473c4.3,0,6.828-2.044,6.828-5.242C460.859,13.145,459.677,11.719,457.069,11.155Zm-6.559-6.21h2.984c2.177,0,3.118.7,3.118,2.285,0,1.64-.995,2.365-3.306,2.365h-2.8Zm2.93,12.661h-2.93V12.714h2.823c2.527,0,3.521.78,3.521,2.5C456.854,16.827,455.886,17.606,453.44,17.606Z" transform="translate(-334.919 -1.289)" fill="currentColor"/>
  <path id="Path_7" data-name="Path 7" d="M530.617,1.719h-3.952V20.859h12.984V17.472h-9.033Z" transform="translate(-394.999 -1.289)" fill="currentColor"/>
  <path id="Path_8" data-name="Path 8" d="M599,1.719l-6.64,19.141h4.14l1.505-4.678h7.339l1.479,4.678h4.14l-6.64-19.141Zm.081,11.075.4-1.263c.78-2.474,1.505-5,2.15-7.474h.054c.645,2.474,1.4,5,2.177,7.474l.4,1.263Z" transform="translate(-444.274 -1.289)" fill="currentColor"/>
  <path id="Path_9" data-name="Path 9" d="M779.543,12.794H788.2V9.434h-8.656V5.106h9.274V1.719H775.591V20.859h13.468V17.472h-9.516Z" transform="translate(-581.693 -1.289)" fill="currentColor"/>
  <path id="Path_10" data-name="Path 10" d="M691.75,3.489A3.4,3.4,0,0,1,695.487,6.4h4.231c-.385-3.9-3.27-6.4-7.968-6.4-5.632,0-9.094,3.819-9.094,10.083,0,6.127,3.38,9.863,9.616,9.863a18.621,18.621,0,0,0,7.446-1.483V9.094h-8.3v3.187h4.314V16.4a9.806,9.806,0,0,1-2.967.44c-4.121,0-6.044-2.555-6.044-6.759C686.722,5.989,688.673,3.489,691.75,3.489Z" transform="translate(-511.992 0)" fill="currentColor"/>
  <path id="Path_11" data-name="Path 11" d="M861.832,4.684c-.316,1.044-.609,2.11-.838,3.165h-.022c-.229-1.055-.511-2.121-.837-3.165l-.924-3.013h-1.632l2.4,7.744h2l2.4-7.744h-1.632Z" transform="translate(-643.184 -1.253)" fill="currentColor"/>
  <rect id="Rectangle_6" data-name="Rectangle 6" width="1.599" height="7.744" transform="translate(222.377 0.418)" fill="currentColor"/>
  <path id="Path_12" data-name="Path 12" d="M906.375,6.152h3.5V4.792h-3.5V3.041h3.752V1.671h-5.351V9.414h5.449V8.044h-3.85Z" transform="translate(-678.582 -1.253)" fill="currentColor"/>
  <path id="Path_13" data-name="Path 13" d="M938.349,4.488c-.218,1.11-.413,2.251-.565,3.35h-.022c-.2-1.1-.435-2.229-.707-3.35l-.674-2.817h-2.023l-.674,2.817c-.272,1.12-.511,2.251-.707,3.35h-.022c-.153-1.1-.348-2.24-.565-3.35l-.555-2.817h-1.566l1.62,7.744h2.077l.718-3.067c.261-1.1.49-2.208.674-3.317h.022c.185,1.11.413,2.219.674,3.317l.718,3.067h2.077l1.62-7.744H938.9Z" transform="translate(-697.701 -1.253)" fill="currentColor"/>
  <path id="Path_14" data-name="Path 14" d="M977.421,4.194c-1.218-.3-1.686-.5-1.686-1.1,0-.5.478-.848,1.186-.848a1.185,1.185,0,0,1,1.348,1.273h1.621c0-1.664-1-2.545-2.937-2.545-1.7,0-2.86.935-2.86,2.295,0,1.7,1.327,2.045,2.784,2.414,1.1.283,1.6.413,1.6,1.1,0,.609-.522.99-1.338.99-.99,0-1.5-.489-1.5-1.424h-1.653c0,1.761,1.208,2.719,3.133,2.719,1.805,0,3.023-.979,3.023-2.447C980.14,4.934,978.878,4.553,977.421,4.194Z" transform="translate(-730.488 -0.731)" fill="currentColor"/>
</svg>
