<svg width="579.148" height="1288.805" xmlns="http://www.w3.org/2000/svg" xmlns:xlink="http://www.w3.org/1999/xlink"><defs><symbol viewBox="0 0 167.657 167.657" id="facebook"><path d="M83.829.349C37.532.349 0 37.881 0 84.178c0 41.523 30.222 75.911 69.848 82.57v-65.081H49.626v-23.42h20.222V60.978c0-20.037 12.238-30.956 30.115-30.956 8.562 0 15.92.638 18.056.919v20.944l-12.399.006c-9.72 0-11.594 4.618-11.594 11.397v14.947h23.193l-3.025 23.42H94.026v65.653c41.476-5.048 73.631-40.312 73.631-83.154 0-46.273-37.532-83.805-83.828-83.805z" fill="currentColor" /></symbol><symbol viewBox="0 0 579.148 579.148" id="pinterest"><path d="M434.924 38.847C390.561 12.954 342.107.01 289.574.01c-52.54 0-100.992 12.944-145.356 38.837C99.854 64.741 64.725 99.87 38.837 144.228 12.944 188.597 0 237.049 0 289.584c0 58.568 15.955 111.732 47.883 159.486 31.922 47.768 73.771 83.08 125.558 105.949-1.01-26.896.625-49.137 4.902-66.732l37.326-157.607c-6.285-12.314-9.425-27.645-9.425-45.999 0-21.365 5.404-39.217 16.212-53.538 10.802-14.333 24.003-21.5 39.59-21.5 12.564 0 22.246 4.143 29.034 12.448 6.787 8.292 10.184 18.727 10.184 31.292 0 7.797-1.451 17.289-4.334 28.47-2.895 11.187-6.665 24.13-11.31 38.837-4.651 14.701-7.98 26.451-9.994 35.252-3.525 15.33-.63 28.463 8.672 39.4 9.295 10.936 21.616 16.4 36.952 16.4 26.898 0 48.955-14.951 66.176-44.865 17.217-29.914 25.826-66.236 25.826-108.973 0-32.925-10.617-59.701-31.859-80.312-21.242-20.606-50.846-30.918-88.795-30.918-42.486 0-76.862 13.642-103.123 40.906-26.267 27.277-39.401 59.896-39.401 97.84 0 22.625 6.414 41.609 19.229 56.941 4.272 5.029 5.655 10.428 4.149 16.205-.508 1.512-1.511 5.281-3.017 11.309-1.505 6.029-2.515 9.934-3.017 11.689-2.014 8.049-6.787 10.564-14.333 7.541-19.357-8.043-34.064-21.99-44.113-41.85-10.055-19.854-15.08-42.852-15.08-68.996 0-16.842 2.699-33.685 8.103-50.527s13.819-33.115 25.264-48.832c11.432-15.698 25.135-29.596 41.102-41.659 15.961-12.069 35.38-21.738 58.256-29.04 22.871-7.283 47.51-10.93 73.904-10.93 35.693 0 67.744 7.919 96.146 23.751 28.402 15.839 50.086 36.329 65.043 61.463 14.951 25.135 22.436 52.026 22.436 80.692 0 37.705-6.541 71.641-19.607 101.807-13.072 30.166-31.549 53.855-55.43 71.072-23.887 17.215-51.035 25.826-81.445 25.826-15.336 0-29.664-3.58-42.986-10.748-13.33-7.166-22.503-15.648-27.528-25.453-11.31 44.486-18.097 71.018-20.361 79.555-4.78 17.852-14.584 38.457-29.413 61.836 26.897 8.043 54.296 12.062 82.198 12.062 52.534 0 100.987-12.943 145.35-38.83 44.363-25.895 79.492-61.023 105.387-105.393 25.887-44.365 38.838-92.811 38.838-145.352 0-52.54-12.951-100.985-38.838-145.355-25.889-44.334-61.024-79.463-105.387-105.357z" fill="currentColor" /></symbol><symbol viewBox="0 0 512 512" id="twitter"><path d="M512 97.248c-19.04 8.352-39.328 13.888-60.48 16.576 21.76-12.992 38.368-33.408 46.176-58.016-20.288 12.096-42.688 20.64-66.56 25.408C411.872 60.704 384.416 48 354.464 48c-58.112 0-104.896 47.168-104.896 104.992 0 8.32.704 16.32 2.432 23.936-87.264-4.256-164.48-46.08-216.352-109.792-9.056 15.712-14.368 33.696-14.368 53.056 0 36.352 18.72 68.576 46.624 87.232-16.864-.32-33.408-5.216-47.424-12.928v1.152c0 51.008 36.384 93.376 84.096 103.136-8.544 2.336-17.856 3.456-27.52 3.456-6.72 0-13.504-.384-19.872-1.792 13.6 41.568 52.192 72.128 98.08 73.12-35.712 27.936-81.056 44.768-130.144 44.768-8.608 0-16.864-.384-25.12-1.44C46.496 446.88 101.6 464 161.024 464c193.152 0 298.752-160 298.752-298.688 0-4.64-.16-9.12-.384-13.568 20.832-14.784 38.336-33.248 52.608-54.496z" fill="currentColor" /></symbol></defs><use width="167.657" height="167.657" xlink:href="#facebook" transform="translate(0, 0)" /><use width="579.148" height="579.148" xlink:href="#pinterest" transform="translate(0, 177.65699999999998)" /><use width="512" height="512" xlink:href="#twitter" transform="translate(0, 766.8050000000002)" /></svg>