<svg width="579.148" height="1380.805" xmlns="http://www.w3.org/2000/svg" xmlns:xlink="http://www.w3.org/1999/xlink"><defs><symbol viewBox="0 0 20 14" id="contents"><g data-name="Group 769" fill="none" stroke="currentColor" stroke-width="2"><g data-name="Group 765"><path data-name="Line 1" d="M0 7h3" /><path data-name="Line 2" d="M0 13h3" /><path data-name="Line 3" d="M0 1h3" /></g><g data-name="Group 766"><path data-name="Line 1" d="M6 7h14" /><path data-name="Line 2" d="M6 13h14" /><path data-name="Line 3" d="M6 1h14" /></g></g></symbol><symbol viewBox="0 0 167.657 167.657" id="facebook"><path d="M83.829.349C37.532.349 0 37.881 0 84.178c0 41.523 30.222 75.911 69.848 82.57v-65.081H49.626v-23.42h20.222V60.978c0-20.037 12.238-30.956 30.115-30.956 8.562 0 15.92.638 18.056.919v20.944l-12.399.006c-9.72 0-11.594 4.618-11.594 11.397v14.947h23.193l-3.025 23.42H94.026v65.653c41.476-5.048 73.631-40.312 73.631-83.154 0-46.273-37.532-83.805-83.828-83.805z" fill="currentColor" /></symbol><symbol viewBox="0 0 249.651 20" id="logo"><path data-name="Path 1" d="M6.64.43L0 19.571h4.14l1.505-4.678h7.339l1.478 4.678H18.6L11.963.43zm.081 11.075l.4-1.263c.78-2.474 1.505-5 2.151-7.474h.054c.645 2.474 1.4 5 2.177 7.474l.4 1.263z" fill="currentColor" /><path data-name="Path 2" d="M31.13 7.957c-3.011-.753-4.167-1.237-4.167-2.716 0-1.237 1.183-2.1 2.93-2.1 2.178 0 3.333 1.155 3.333 3.145h4.006c0-4.113-2.474-6.29-7.259-6.29-4.194 0-7.07 2.311-7.07 5.672 0 4.194 3.28 5.053 6.882 5.967 2.715.7 3.952 1.022 3.952 2.716 0 1.505-1.29 2.446-3.307 2.446-2.446 0-3.71-1.21-3.71-3.522h-4.085c0 4.355 2.984 6.72 7.742 6.72 4.462 0 7.473-2.419 7.473-6.049 0-4.161-3.118-5.102-6.72-5.989z" fill="currentColor" /><path data-name="Path 3" d="M51.694 7.957c-3.011-.753-4.167-1.237-4.167-2.716 0-1.237 1.183-2.1 2.93-2.1 2.178 0 3.333 1.155 3.333 3.145h4.006c0-4.113-2.474-6.29-7.259-6.29-4.193 0-7.07 2.311-7.07 5.672 0 4.194 3.28 5.053 6.882 5.967 2.715.7 3.952 1.022 3.952 2.716 0 1.505-1.29 2.446-3.307 2.446-2.447 0-3.71-1.21-3.71-3.522h-4.081c0 4.355 2.984 6.72 7.742 6.72 4.462 0 7.473-2.419 7.473-6.049-.003-4.161-3.122-5.102-6.724-5.989z" fill="currentColor" /><path data-name="Path 4" d="M67.554 11.505h8.656v-3.36h-8.656V3.817h9.274V.43H63.602v19.14H77.07v-3.387h-9.516z" fill="currentColor" /><path data-name="Path 5" d="M96.103 9.221a82.657 82.657 0 00-1.882 7.043h-.053a82.657 82.657 0 00-1.882-7.043L89.517.43h-6.344v19.141h3.79v-9.517q0-3.589-.161-7.178h.054a161.158 161.158 0 002.043 7.043l3.037 9.651h4.516l3.038-9.651a159.56 159.56 0 002.043-7.043h.054q-.161 3.589-.161 7.178v9.517h3.79V.43h-6.344z" fill="currentColor" /><path data-name="Path 6" d="M122.15 9.866v-.055c2.231-.833 3.333-2.258 3.333-4.462 0-2.931-2.2-4.92-6.963-4.92h-6.882v19.142h7.473c4.3 0 6.828-2.044 6.828-5.242.001-2.473-1.181-3.899-3.789-4.463zm-6.559-6.21h2.984c2.177 0 3.118.7 3.118 2.285 0 1.64-.995 2.365-3.306 2.365h-2.8zm2.93 12.661h-2.93v-4.892h2.823c2.527 0 3.521.78 3.521 2.5 0 1.613-.968 2.392-3.414 2.392z" fill="currentColor" /><path data-name="Path 7" d="M135.618.43h-3.952v19.14h12.984v-3.387h-9.033z" fill="currentColor" /><path data-name="Path 8" d="M154.726.43l-6.64 19.141h4.14l1.505-4.678h7.339l1.479 4.678h4.14L160.049.43zm.081 11.075l.4-1.263c.78-2.474 1.505-5 2.15-7.474h.054c.645 2.474 1.4 5 2.177 7.474l.4 1.263z" fill="currentColor" /><path data-name="Path 9" d="M197.85 11.505h8.657v-3.36h-8.656V3.817h9.274V.43h-13.227v19.14h13.468v-3.387h-9.516z" fill="currentColor" /><path data-name="Path 10" d="M179.758 3.489a3.4 3.4 0 013.737 2.911h4.231c-.385-3.9-3.27-6.4-7.968-6.4-5.632 0-9.094 3.819-9.094 10.083 0 6.127 3.38 9.863 9.616 9.863a18.621 18.621 0 007.446-1.483V9.094h-8.3v3.187h4.314V16.4a9.806 9.806 0 01-2.967.44c-4.121 0-6.044-2.555-6.044-6.759.001-4.092 1.952-6.592 5.029-6.592z" fill="currentColor" /><path data-name="Path 11" d="M218.648 3.431a41.126 41.126 0 00-.838 3.165h-.022a37.006 37.006 0 00-.837-3.165l-.924-3.013h-1.632l2.4 7.744h2l2.4-7.744h-1.632z" fill="currentColor" /><path data-name="Rectangle 6" fill="currentColor" d="M222.377.418h1.599v7.744h-1.599z" /><path data-name="Path 12" d="M227.793 4.899h3.5v-1.36h-3.5V1.788h3.752V.418h-5.351v7.743h5.449v-1.37h-3.85z" fill="currentColor" /><path data-name="Path 13" d="M240.648 3.235a60.835 60.835 0 00-.565 3.35h-.022c-.2-1.1-.435-2.229-.707-3.35L238.68.418h-2.023l-.674 2.817a55.81 55.81 0 00-.707 3.35h-.022c-.153-1.1-.348-2.24-.565-3.35l-.555-2.817h-1.566l1.62 7.744h2.077l.718-3.067c.261-1.1.49-2.208.674-3.317h.022c.185 1.11.413 2.219.674 3.317l.718 3.067h2.077l1.62-7.744h-1.569z" fill="currentColor" /><path data-name="Path 14" d="M246.933 3.463c-1.218-.3-1.686-.5-1.686-1.1 0-.5.478-.848 1.186-.848a1.185 1.185 0 011.348 1.273h1.621c0-1.664-1-2.545-2.937-2.545-1.7 0-2.86.935-2.86 2.295 0 1.7 1.327 2.045 2.784 2.414 1.1.283 1.6.413 1.6 1.1 0 .609-.522.99-1.338.99-.99 0-1.5-.489-1.5-1.424h-1.653c0 1.761 1.208 2.719 3.133 2.719 1.805 0 3.023-.979 3.023-2.447-.002-1.687-1.264-2.068-2.721-2.427z" fill="currentColor" /></symbol><symbol viewBox="0 0 579.148 579.148" id="pinterest"><path d="M434.924 38.847C390.561 12.954 342.107.01 289.574.01c-52.54 0-100.992 12.944-145.356 38.837C99.854 64.741 64.725 99.87 38.837 144.228 12.944 188.597 0 237.049 0 289.584c0 58.568 15.955 111.732 47.883 159.486 31.922 47.768 73.771 83.08 125.558 105.949-1.01-26.896.625-49.137 4.902-66.732l37.326-157.607c-6.285-12.314-9.425-27.645-9.425-45.999 0-21.365 5.404-39.217 16.212-53.538 10.802-14.333 24.003-21.5 39.59-21.5 12.564 0 22.246 4.143 29.034 12.448 6.787 8.292 10.184 18.727 10.184 31.292 0 7.797-1.451 17.289-4.334 28.47-2.895 11.187-6.665 24.13-11.31 38.837-4.651 14.701-7.98 26.451-9.994 35.252-3.525 15.33-.63 28.463 8.672 39.4 9.295 10.936 21.616 16.4 36.952 16.4 26.898 0 48.955-14.951 66.176-44.865 17.217-29.914 25.826-66.236 25.826-108.973 0-32.925-10.617-59.701-31.859-80.312-21.242-20.606-50.846-30.918-88.795-30.918-42.486 0-76.862 13.642-103.123 40.906-26.267 27.277-39.401 59.896-39.401 97.84 0 22.625 6.414 41.609 19.229 56.941 4.272 5.029 5.655 10.428 4.149 16.205-.508 1.512-1.511 5.281-3.017 11.309-1.505 6.029-2.515 9.934-3.017 11.689-2.014 8.049-6.787 10.564-14.333 7.541-19.357-8.043-34.064-21.99-44.113-41.85-10.055-19.854-15.08-42.852-15.08-68.996 0-16.842 2.699-33.685 8.103-50.527s13.819-33.115 25.264-48.832c11.432-15.698 25.135-29.596 41.102-41.659 15.961-12.069 35.38-21.738 58.256-29.04 22.871-7.283 47.51-10.93 73.904-10.93 35.693 0 67.744 7.919 96.146 23.751 28.402 15.839 50.086 36.329 65.043 61.463 14.951 25.135 22.436 52.026 22.436 80.692 0 37.705-6.541 71.641-19.607 101.807-13.072 30.166-31.549 53.855-55.43 71.072-23.887 17.215-51.035 25.826-81.445 25.826-15.336 0-29.664-3.58-42.986-10.748-13.33-7.166-22.503-15.648-27.528-25.453-11.31 44.486-18.097 71.018-20.361 79.555-4.78 17.852-14.584 38.457-29.413 61.836 26.897 8.043 54.296 12.062 82.198 12.062 52.534 0 100.987-12.943 145.35-38.83 44.363-25.895 79.492-61.023 105.387-105.393 25.887-44.365 38.838-92.811 38.838-145.352 0-52.54-12.951-100.985-38.838-145.355-25.889-44.334-61.024-79.463-105.387-105.357z" fill="currentColor" /></symbol><symbol viewBox="0 0 30 28" id="play-icon"><path data-name="Polygon 2" d="M30 14L0 28V0z" fill="currentColor" /></symbol><symbol viewBox="0 0 512 512" id="twitter"><path d="M512 97.248c-19.04 8.352-39.328 13.888-60.48 16.576 21.76-12.992 38.368-33.408 46.176-58.016-20.288 12.096-42.688 20.64-66.56 25.408C411.872 60.704 384.416 48 354.464 48c-58.112 0-104.896 47.168-104.896 104.992 0 8.32.704 16.32 2.432 23.936-87.264-4.256-164.48-46.08-216.352-109.792-9.056 15.712-14.368 33.696-14.368 53.056 0 36.352 18.72 68.576 46.624 87.232-16.864-.32-33.408-5.216-47.424-12.928v1.152c0 51.008 36.384 93.376 84.096 103.136-8.544 2.336-17.856 3.456-27.52 3.456-6.72 0-13.504-.384-19.872-1.792 13.6 41.568 52.192 72.128 98.08 73.12-35.712 27.936-81.056 44.768-130.144 44.768-8.608 0-16.864-.384-25.12-1.44C46.496 446.88 101.6 464 161.024 464c193.152 0 298.752-160 298.752-298.688 0-4.64-.16-9.12-.384-13.568 20.832-14.784 38.336-33.248 52.608-54.496z" fill="currentColor" /></symbol></defs><use width="20" height="14" xlink:href="#contents" transform="translate(0, 0)" /><use width="167.657" height="167.657" xlink:href="#facebook" transform="translate(0, 24)" /><use width="249.651" height="20" xlink:href="#logo" transform="translate(0, 201.657)" /><use width="579.148" height="579.148" xlink:href="#pinterest" transform="translate(0, 231.657)" /><use width="30" height="28" xlink:href="#play-icon" transform="translate(0, 820.8050000000002)" /><use width="512" height="512" xlink:href="#twitter" transform="translate(0, 858.8050000000001)" /></svg>