<svg width="169.896" height="93.354" xmlns="http://www.w3.org/2000/svg" xmlns:xlink="http://www.w3.org/1999/xlink"><defs><symbol viewBox="0 0 30 30" id="arrow"><g data-name="Group 7295" fill="none" stroke="#000"><g data-name="Ellipse 7" transform="rotate(-90 15 15)"><circle cx="15" cy="15" r="15" stroke="none" /><circle cx="15" cy="15" r="14.5" /></g><g data-name="Group 5933"><path data-name="Path 17" d="M7.5 14.999h15" /><path data-name="Path 76" d="M15.5 22l7-7-7-7" /></g></g></symbol><symbol viewBox="0 0 169.896 16" id="hp-partners-logo"><path fill="currentColor" data-name="Union 3" d="M160.423 11.145h2.248c0 .52.229 2.79 2.5 2.79a2.405 2.405 0 002.477-2.6c0-1.728-1.415-2.1-2.477-2.518-2.061-.791-2.561-1.041-3.27-1.728a4.087 4.087 0 01-1.041-2.893 4.22 4.22 0 014.255-4.188h.054a4.142 4.142 0 014.413 4.287h-2.248a2.064 2.064 0 00-2.165-2.227 2.119 2.119 0 00-2.061 2.1c0 1.478 1.394 1.873 2.061 2.123 1.936.727 4.723 1.332 4.723 5.037a4.5 4.5 0 01-4.322 4.665q-.2.008-.4 0a4.62 4.62 0 01-4.75-4.486q-.005-.179.003-.362zm-7.14 4.56l-5.079-7.14h-.041v7.14h-2.248V.305h4.767c2.165 0 3.289.52 4.1 1.29a5.087 5.087 0 011.416 3.643 4.426 4.426 0 01-4.119 4.713q-.147.01-.294.01l4.309 5.745zm-5.121-7.452h1.541c.915 0 4.246-.042 4.246-3.018 0-1.29-.872-2.872-3.415-2.872h-2.373zm-16.193 7.452V.305h8.305v2.061h-6.059v4.537h6.057v2.061h-6.057v4.683h6.057v2.062zm-8.368 0l-7.618-11.907h-.041v11.907h-2.248V.305h2.456l7.494 11.719h.041V.3h2.248v15.4zm-19.962 0V2.361h-2.954V.3h8.163v2.061h-2.956v13.343zm-9.866 0l-5.079-7.14h-.042v7.14h-2.247V.305h4.767c2.165 0 3.289.52 4.1 1.29a5.09 5.09 0 011.415 3.643 4.426 4.426 0 01-4.119 4.713q-.147.01-.294.01l4.309 5.745zm-5.121-7.452h1.54c.916 0 4.246-.042 4.246-3.018 0-1.29-.872-2.872-3.415-2.872H88.65zm-9.366 7.452l-1.707-4.538h-5.537l-1.707 4.538h-2.372l5.849-15.4h2.019l5.849 15.4zm-6.452-6.6h3.981l-1.957-5.891h-.043zm-18.546 6.6V.305h4.454c3.684 0 5.433 1.915 5.433 4.663s-1.749 4.663-5.433 4.663h-2.206v6.079zm2.248-8.138h2.207c2.56 0 3.185-1.457 3.185-2.6s-.625-2.6-3.185-2.6h-2.207zm-39.679 8.138V.305h4.458c3.684 0 5.435 1.915 5.435 4.663s-1.749 4.663-5.433 4.663h-2.202v6.078zm2.258-8.139h2.2c2.56 0 3.185-1.457 3.185-2.6s-.625-2.6-3.185-2.6h-2.2zM8.601 15.704v-6.7H2.253v6.7H.005V.304h2.248v6.641h6.348V.304h2.248v15.4zm30.714-2.276V8.887h-4.541V7.378h4.541V2.837h1.514v4.541h4.542v1.514h-4.546v4.536z" /></symbol><symbol viewBox="0 0 17.354 17.354" id="search"><g data-name="Group 24" fill="none" stroke="currentColor"><g data-name="Ellipse 5"><circle cx="6.907" cy="6.907" r="6.907" stroke="none" /><circle cx="6.907" cy="6.907" r="6.407" /></g><path data-name="Path 1" d="M11.387 11.387L17 17.002" /></g></symbol></defs><use width="30" height="30" xlink:href="#arrow" transform="translate(0, 0)" /><use width="169.896" height="16" xlink:href="#hp-partners-logo" transform="translate(0, 40)" /><use width="17.354" height="17.354" xlink:href="#search" transform="translate(0, 66)" /></svg>